<svg fill="none" xmlns="http://www.w3.org/2000/svg" viewBox="0 0 16 16"><g clip-path="url(#a)"><path fill-rule="evenodd" clip-rule="evenodd" d="M10.27 14.1a6.5 6.5 0 0 0 3.67-3.45q-1.24.21-2.7.34-1.45.14-2.83.05a34 34 0 0 1-.42-4.62 34 34 0 0 1 .32-4.6 29.4 29.4 0 0 0-5.1.26 6.5 6.5 0 0 0 .5 10.61q.54.28 1.11.5.56.23 1.15.42A17 17 0 0 0 10.27 14.1m.22-5c-.5-.03-1-.06-1.5-.1q0-.43.01-.85.03-.6.1-1.2.46.02.94.01.5 0 .98.06.02.54.02 1.08z" fill="#000"/><defs><clipPath id="a"><path fill="#fff" d="M0 0h16v16H0z"/></clipPath></defs></svg>